<svg xmlns:xlink="http://www.w3.org/1999/xlink" width="39.859ex" height="4.009ex" style="vertical-align: -2.005ex;" viewBox="0 -863.1 17161.6 1726.2" role="img" focusable="false" xmlns="http://www.w3.org/2000/svg" aria-labelledby="MathJax-SVG-1-Title">
<title id="MathJax-SVG-1-Title">Equation</title>
<defs aria-hidden="true">
<path stroke-width="1" id="E1-MJMATHI-44" d="M287 628Q287 635 230 637Q207 637 200 638T193 647Q193 655 197 667T204 682Q206 683 403 683Q570 682 590 682T630 676Q702 659 752 597T803 431Q803 275 696 151T444 3L430 1L236 0H125H72Q48 0 41 2T33 11Q33 13 36 25Q40 41 44 43T67 46Q94 46 127 49Q141 52 146 61Q149 65 218 339T287 628ZM703 469Q703 507 692 537T666 584T629 613T590 629T555 636Q553 636 541 636T512 636T479 637H436Q392 637 386 627Q384 623 313 339T242 52Q242 48 253 48T330 47Q335 47 349 47T373 46Q499 46 581 128Q617 164 640 212T683 339T703 469Z"></path>
<path stroke-width="1" id="E1-MJMAIN-6D" d="M41 46H55Q94 46 102 60V68Q102 77 102 91T102 122T103 161T103 203Q103 234 103 269T102 328V351Q99 370 88 376T43 385H25V408Q25 431 27 431L37 432Q47 433 65 434T102 436Q119 437 138 438T167 441T178 442H181V402Q181 364 182 364T187 369T199 384T218 402T247 421T285 437Q305 442 336 442Q351 442 364 440T387 434T406 426T421 417T432 406T441 395T448 384T452 374T455 366L457 361L460 365Q463 369 466 373T475 384T488 397T503 410T523 422T546 432T572 439T603 442Q729 442 740 329Q741 322 741 190V104Q741 66 743 59T754 49Q775 46 803 46H819V0H811L788 1Q764 2 737 2T699 3Q596 3 587 0H579V46H595Q656 46 656 62Q657 64 657 200Q656 335 655 343Q649 371 635 385T611 402T585 404Q540 404 506 370Q479 343 472 315T464 232V168V108Q464 78 465 68T468 55T477 49Q498 46 526 46H542V0H534L510 1Q487 2 460 2T422 3Q319 3 310 0H302V46H318Q379 46 379 62Q380 64 380 200Q379 335 378 343Q372 371 358 385T334 402T308 404Q263 404 229 370Q202 343 195 315T187 232V168V108Q187 78 188 68T191 55T200 49Q221 46 249 46H265V0H257L234 1Q210 2 183 2T145 3Q42 3 33 0H25V46H41Z"></path>
<path stroke-width="1" id="E1-MJMAIN-61" d="M137 305T115 305T78 320T63 359Q63 394 97 421T218 448Q291 448 336 416T396 340Q401 326 401 309T402 194V124Q402 76 407 58T428 40Q443 40 448 56T453 109V145H493V106Q492 66 490 59Q481 29 455 12T400 -6T353 12T329 54V58L327 55Q325 52 322 49T314 40T302 29T287 17T269 6T247 -2T221 -8T190 -11Q130 -11 82 20T34 107Q34 128 41 147T68 188T116 225T194 253T304 268H318V290Q318 324 312 340Q290 411 215 411Q197 411 181 410T156 406T148 403Q170 388 170 359Q170 334 154 320ZM126 106Q126 75 150 51T209 26Q247 26 276 49T315 109Q317 116 318 175Q318 233 317 233Q309 233 296 232T251 223T193 203T147 166T126 106Z"></path>
<path stroke-width="1" id="E1-MJMAIN-78" d="M201 0Q189 3 102 3Q26 3 17 0H11V46H25Q48 47 67 52T96 61T121 78T139 96T160 122T180 150L226 210L168 288Q159 301 149 315T133 336T122 351T113 363T107 370T100 376T94 379T88 381T80 383Q74 383 44 385H16V431H23Q59 429 126 429Q219 429 229 431H237V385Q201 381 201 369Q201 367 211 353T239 315T268 274L272 270L297 304Q329 345 329 358Q329 364 327 369T322 376T317 380T310 384L307 385H302V431H309Q324 428 408 428Q487 428 493 431H499V385H492Q443 385 411 368Q394 360 377 341T312 257L296 236L358 151Q424 61 429 57T446 50Q464 46 499 46H516V0H510H502Q494 1 482 1T457 2T432 2T414 3Q403 3 377 3T327 1L304 0H295V46H298Q309 46 320 51T331 63Q331 65 291 120L250 175Q249 174 219 133T185 88Q181 83 181 74Q181 63 188 55T206 46Q208 46 208 23V0H201Z"></path>
<path stroke-width="1" id="E1-MJMAIN-4B" d="M128 622Q121 629 117 631T101 634T58 637H25V683H36Q57 680 180 680Q315 680 324 683H335V637H313Q235 637 233 620Q232 618 232 462L233 307L379 449Q425 494 479 546Q518 584 524 591T531 607V608Q531 630 503 636Q501 636 498 636T493 637H489V683H499Q517 680 630 680Q704 680 716 683H722V637H708Q633 633 589 597Q584 592 495 506T406 419T515 254T631 80Q644 60 662 54T715 46H736V0H728Q719 3 615 3Q493 3 472 0H461V46H469Q515 46 515 72Q515 78 512 84L336 351Q332 348 278 296L232 251V156Q232 62 235 58Q243 47 302 46H335V0H324Q303 3 180 3Q45 3 36 0H25V46H58Q100 47 109 49T128 61V622Z"></path>
<path stroke-width="1" id="E1-MJMAIN-4C" d="M128 622Q121 629 117 631T101 634T58 637H25V683H36Q48 680 182 680Q324 680 348 683H360V637H333Q273 637 258 635T233 622L232 342V129Q232 57 237 52Q243 47 313 47Q384 47 410 53Q470 70 498 110T536 221Q536 226 537 238T540 261T542 272T562 273H582V268Q580 265 568 137T554 5V0H25V46H58Q100 47 109 49T128 61V622Z"></path>
<path stroke-width="1" id="E1-MJMAIN-28" d="M94 250Q94 319 104 381T127 488T164 576T202 643T244 695T277 729T302 750H315H319Q333 750 333 741Q333 738 316 720T275 667T226 581T184 443T167 250T184 58T225 -81T274 -167T316 -220T333 -241Q333 -250 318 -250H315H302L274 -226Q180 -141 137 -14T94 250Z"></path>
<path stroke-width="1" id="E1-MJMATHI-3C0" d="M132 -11Q98 -11 98 22V33L111 61Q186 219 220 334L228 358H196Q158 358 142 355T103 336Q92 329 81 318T62 297T53 285Q51 284 38 284Q19 284 19 294Q19 300 38 329T93 391T164 429Q171 431 389 431Q549 431 553 430Q573 423 573 402Q573 371 541 360Q535 358 472 358H408L405 341Q393 269 393 222Q393 170 402 129T421 65T431 37Q431 20 417 5T381 -10Q370 -10 363 -7T347 17T331 77Q330 86 330 121Q330 170 339 226T357 318T367 358H269L268 354Q268 351 249 275T206 114T175 17Q164 -11 132 -11Z"></path>
<path stroke-width="1" id="E1-MJMAIN-2C" d="M78 35T78 60T94 103T137 121Q165 121 187 96T210 8Q210 -27 201 -60T180 -117T154 -158T130 -185T117 -194Q113 -194 104 -185T95 -172Q95 -168 106 -156T131 -126T157 -76T173 -3V9L172 8Q170 7 167 6T161 3T152 1T140 0Q113 0 96 17Z"></path>
<path stroke-width="1" id="E1-MJMAIN-7E" d="M179 251Q164 251 151 245T131 234T111 215L97 227L83 238Q83 239 95 253T121 283T142 304Q165 318 187 318T253 300T320 282Q335 282 348 288T368 299T388 318L402 306L416 295Q375 236 344 222Q330 215 313 215Q292 215 248 233T179 251Z"></path>
<path stroke-width="1" id="E1-MJMAIN-2DC" d="M179 601Q164 601 151 595T131 584T111 565L97 577L83 588Q83 589 95 603T121 633T142 654Q165 668 187 668T253 650T320 632Q335 632 348 638T368 649T388 668L402 656L416 645Q375 586 344 572Q330 565 313 565Q292 565 248 583T179 601Z"></path>
<path stroke-width="1" id="E1-MJMAIN-29" d="M60 749L64 750Q69 750 74 750H86L114 726Q208 641 251 514T294 250Q294 182 284 119T261 12T224 -76T186 -143T145 -194T113 -227T90 -246Q87 -249 86 -250H74Q66 -250 63 -250T58 -247T55 -238Q56 -237 66 -225Q221 -64 221 250T66 725Q56 737 55 738Q55 746 60 749Z"></path>
<path stroke-width="1" id="E1-MJMAIN-3D" d="M56 347Q56 360 70 367H707Q722 359 722 347Q722 336 708 328L390 327H72Q56 332 56 347ZM56 153Q56 168 72 173H708Q722 163 722 153Q722 140 707 133H70Q56 140 56 153Z"></path>
<path stroke-width="1" id="E1-MJMATHI-73" d="M131 289Q131 321 147 354T203 415T300 442Q362 442 390 415T419 355Q419 323 402 308T364 292Q351 292 340 300T328 326Q328 342 337 354T354 372T367 378Q368 378 368 379Q368 382 361 388T336 399T297 405Q249 405 227 379T204 326Q204 301 223 291T278 274T330 259Q396 230 396 163Q396 135 385 107T352 51T289 7T195 -10Q118 -10 86 19T53 87Q53 126 74 143T118 160Q133 160 146 151T160 120Q160 94 142 76T111 58Q109 57 108 57T107 55Q108 52 115 47T146 34T201 27Q237 27 263 38T301 66T318 97T323 122Q323 150 302 164T254 181T195 196T148 231Q131 256 131 289Z"></path>
<path stroke-width="1" id="E1-MJMAIN-22C5" d="M78 250Q78 274 95 292T138 310Q162 310 180 294T199 251Q199 226 182 208T139 190T96 207T78 250Z"></path>
<path stroke-width="1" id="E1-MJMAIN-2223" d="M139 -249H137Q125 -249 119 -235V251L120 737Q130 750 139 750Q152 750 159 735V-235Q151 -249 141 -249H139Z"></path>
<path stroke-width="1" id="E1-MJMAIN-2225" d="M133 736Q138 750 153 750Q164 750 170 739Q172 735 172 250T170 -239Q164 -250 152 -250Q144 -250 138 -244L137 -243Q133 -241 133 -179T132 250Q132 731 133 736ZM329 739Q334 750 346 750Q353 750 361 744L362 743Q366 741 366 679T367 250T367 -178T362 -243L361 -244Q355 -250 347 -250Q335 -250 329 -239Q327 -235 327 250T329 739Z"></path>
<path stroke-width="1" id="E1-MJMAIN-2E" d="M78 60Q78 84 95 102T138 120Q162 120 180 104T199 61Q199 36 182 18T139 0T96 17T78 60Z"></path>
</defs>
<g stroke="currentColor" fill="currentColor" stroke-width="0" transform="matrix(1 0 0 -1 0 0)" aria-hidden="true">
 <use xlink:href="#E1-MJMATHI-44" x="0" y="0"></use>
<g transform="translate(828,352)">
 <use transform="scale(0.707)" xlink:href="#E1-MJMAIN-6D"></use>
 <use transform="scale(0.707)" xlink:href="#E1-MJMAIN-61" x="833" y="0"></use>
 <use transform="scale(0.707)" xlink:href="#E1-MJMAIN-78" x="1334" y="0"></use>
</g>
<g transform="translate(828,-320)">
 <use transform="scale(0.707)" xlink:href="#E1-MJMAIN-4B" x="0" y="0"></use>
 <use transform="scale(0.707)" xlink:href="#E1-MJMAIN-4C" x="778" y="0"></use>
</g>
 <use xlink:href="#E1-MJMAIN-28" x="2245" y="0"></use>
 <use xlink:href="#E1-MJMATHI-3C0" x="2634" y="0"></use>
 <use xlink:href="#E1-MJMAIN-2C" x="3208" y="0"></use>
<g transform="translate(3653,0)">
 <use xlink:href="#E1-MJMATHI-3C0" x="0" y="0"></use>
 <use xlink:href="#E1-MJMAIN-2DC" x="38" y="-25"></use>
</g>
 <use xlink:href="#E1-MJMAIN-29" x="4227" y="0"></use>
 <use xlink:href="#E1-MJMAIN-3D" x="4894" y="0"></use>
<g transform="translate(5950,0)">
 <use xlink:href="#E1-MJMAIN-6D"></use>
 <use xlink:href="#E1-MJMAIN-61" x="833" y="0"></use>
 <use xlink:href="#E1-MJMAIN-78" x="1334" y="0"></use>
 <use transform="scale(0.707)" xlink:href="#E1-MJMATHI-73" x="1082" y="-866"></use>
</g>
<g transform="translate(7813,0)">
 <use xlink:href="#E1-MJMATHI-44" x="0" y="0"></use>
<g transform="translate(828,-150)">
 <use transform="scale(0.707)" xlink:href="#E1-MJMAIN-4B" x="0" y="0"></use>
 <use transform="scale(0.707)" xlink:href="#E1-MJMAIN-4C" x="778" y="0"></use>
</g>
</g>
 <use xlink:href="#E1-MJMAIN-28" x="9734" y="0"></use>
 <use xlink:href="#E1-MJMATHI-3C0" x="10123" y="0"></use>
 <use xlink:href="#E1-MJMAIN-28" x="10697" y="0"></use>
 <use xlink:href="#E1-MJMAIN-22C5" x="11086" y="0"></use>
 <use xlink:href="#E1-MJMAIN-2223" x="11643" y="0"></use>
 <use xlink:href="#E1-MJMATHI-73" x="12199" y="0"></use>
 <use xlink:href="#E1-MJMAIN-29" x="12669" y="0"></use>
 <use xlink:href="#E1-MJMAIN-2225" x="13058" y="0"></use>
<g transform="translate(13559,0)">
 <use xlink:href="#E1-MJMATHI-3C0" x="0" y="0"></use>
 <use xlink:href="#E1-MJMAIN-2DC" x="38" y="-25"></use>
</g>
 <use xlink:href="#E1-MJMAIN-28" x="14132" y="0"></use>
 <use xlink:href="#E1-MJMAIN-22C5" x="14522" y="0"></use>
 <use xlink:href="#E1-MJMAIN-2223" x="15078" y="0"></use>
 <use xlink:href="#E1-MJMATHI-73" x="15634" y="0"></use>
 <use xlink:href="#E1-MJMAIN-29" x="16104" y="0"></use>
 <use xlink:href="#E1-MJMAIN-29" x="16493" y="0"></use>
 <use xlink:href="#E1-MJMAIN-2E" x="16883" y="0"></use>
</g>
</svg>